# xmcd
#
# Track frame offsets: 
#        150
#        12681
#        24704
#        38954
#        50779
#        63517
#        76374
#        90549
#        104226
#        118777
#        130826
#        142600
#        155712
#        168228
#        182543
#        195500
#        207487
#        220223
#        233495
#        245293
#
# Disc length: 3462 seconds
#
# Revision: 0
# Processed by: cddbd v1.5.2PL0 Copyright (c) Steve Scherf et al.
# Submitted via: ExactAudioCopy v0.95b4
#
DISCID=1c0d8414
DTITLE=Ruth Brown - R.B.Blues
DYEAR=2001
DGENRE=Blues
TTITLE0=It's Raining
TTITLE1=So Long
TTITLE2=Love Me Baby
TTITLE3=I'll Get Along Somehow
TTITLE4=Happiness is a Thing Called Joe
TTITLE5=Rocking Blues
TTITLE6=Someday
TTITLE7=Why?
TTITLE8=It's All in Your Mind
TTITLE9=I Can Dream, Can't I?
TTITLE10=Sentimental Journey
TTITLE11=Where Can I Go?
TTITLE12=Dear Little Boy of Mine
TTITLE13=Am I Making the Same Mistake Again?
TTITLE14=Teardrops From My Eyes
TTITLE15=R.B.Blues
TTITLE16=I Know
TTITLE17=I Don't Want Nobody
TTITLE18=I'll Wait for You
TTITLE19=Standing On the Corner
EXTD=
EXTT0=
EXTT1=
EXTT2=
EXTT3=
EXTT4=
EXTT5=
EXTT6=
EXTT7=
EXTT8=
EXTT9=
EXTT10=
EXTT11=
EXTT12=
EXTT13=
EXTT14=
EXTT15=
EXTT16=
EXTT17=
EXTT18=
EXTT19=
PLAYORDER=
